<mxfile host="multicloud-diagrams" agent="PIP package multicloud-diagrams. Generate resources in draw.io compatible format for Cloud infrastructure. Copyrights @ Roman Tsypuk 2023. MIT license." type="MultiCloud">
	<diagram id="diagram_1" name="AWS components">
		<mxGraphModel dx="1015" dy="661" grid="1" gridSize="10" guides="1" tooltips="1" connect="1" arrows="1" fold="1" page="1" pageScale="1" pageWidth="850" pageHeight="1100" math="0" shadow="1">
			<root>
				<mxCell id="0"/>
				<mxCell id="1" parent="0"/>
				<mxCell id="vertex:global_accelerator:arn:aws:global_accelerator:us-west-1:123456789012:service/global_accelerator/123" value="&lt;b&gt;Name&lt;/b&gt;: Global Accelerator&lt;BR&gt;&lt;b&gt;ARN&lt;/b&gt;: arn:aws:global_accelerator:us-west-1:123456789012:service/global_accelerator/123&lt;BR&gt;-----------&lt;BR&gt;&lt;b&gt;AcceleratorArn&lt;/b&gt;: ARN&lt;BR&gt;&lt;b&gt;Name&lt;/b&gt;: cross-vertical-http&lt;BR&gt;&lt;b&gt;IpAddressType&lt;/b&gt;: DUAL_STACK&lt;BR&gt;&lt;b&gt;Enabled&lt;/b&gt;: True&lt;BR&gt;&lt;b&gt;DnsName&lt;/b&gt;: local.dns.com&lt;BR&gt;&lt;b&gt;Status&lt;/b&gt;: DEPLOYED&lt;BR&gt;&lt;b&gt;CreatedTime&lt;/b&gt;: 2024-08-05&lt;BR&gt;&lt;b&gt;DualStackDnsName&lt;/b&gt;: ipv4&amp;v6" style="sketch=0;outlineConnect=0;fontColor=#232F3E;fillColor=#8C4FFF;strokeColor=#ffffff;dashed=0;verticalLabelPosition=bottom;verticalAlign=top;align=left;html=1;fontSize=12;fontStyle=0;aspect=fixed;shape=mxgraph.aws4.resourceIcon;resIcon=mxgraph.aws4.global_accelerator;" parent="1" vertex="1">
					<mxGeometry width="78" height="78" as="geometry"/>
				</mxCell>
			</root>
		</mxGraphModel>
	</diagram>
</mxfile>